<svg xmlns="http://www.w3.org/2000/svg" viewBox="0 0 32 32"><g fill="none" fill-rule="evenodd"><path fill="#5FBAE6" d="M0 5l10.667 10.666L21.333 5z"/><path fill="#FEDF71" d="M0 26.33c.06-.09 10.67-10.66 10.67-10.66l10.66 10.66H0z"/><path fill="#CE3527" d="M32 15.667L21.333 5 10.667 15.667l10.666 10.666z"/><g><path fill="#2395D0" d="M10.631 5v10.666L21.297 5z"/><path fill="#5FBAE6" d="M0 5l10.667 10.666V5z"/><path fill="#8E271D" d="M21.334 15.667v10.666L32 15.667z"/><path fill="#CE3527" d="M10.667 15.667l10.666 10.666V15.667z"/><path fill="#F8AD35" d="M10.667 26.333h10.666L10.667 15.667z"/><path fill="#FEDF71" d="M0 26.333h10.667V15.667z"/><path fill="#AA2923" d="M21.334 5v10.666H32z"/><path fill="#E54B3B" d="M21.334 5L10.667 15.666h10.667z"/></g></g></svg>