<svg xmlns="http://www.w3.org/2000/svg" viewBox="0 0 32 32"><g fill="none" fill-rule="evenodd"><g transform="translate(0 5)"><polygon fill="#5FBAE6" points="0 0 10.667 10.666 21.333 0"/><path fill="#FEDF71" d="M0 21.33c.06-.09 10.67-10.66 10.67-10.66l10.66 10.66H0z"/><polygon fill="#CE3527" points="32 10.667 21.333 0 10.667 10.667 21.333 21.333"/></g><g transform="translate(0 5)"><polygon fill="#2395D0" points="10.631 0 10.631 10.666 21.297 0"/><polygon fill="#5FBAE6" points="0 0 10.667 10.666 10.667 0"/><polygon fill="#8E271D" points="21.334 10.667 21.334 21.333 32 10.667"/><polygon fill="#CE3527" points="10.667 10.667 21.333 21.333 21.333 10.667"/><polygon fill="#F8AD35" points="10.667 21.333 21.333 21.333 10.667 10.667"/><polygon fill="#FEDF71" points="0 21.333 10.667 21.333 10.667 10.667"/><polygon fill="#AA2923" points="21.334 0 21.334 10.666 32 10.666"/><polygon fill="#E54B3B" points="21.334 0 10.667 10.666 21.334 10.666"/></g></g></svg>